<svg width="349px" height="29px" viewBox="0 0 349 29" version="1.1" xmlns="http://www.w3.org/2000/svg"><g id="dux-logo-horizontal" stroke="none" stroke-width="1" fill="none" fill-rule="evenodd"><g fill="#213345" fill-rule="nonzero"><g id="Group" transform="translate(64.000000, 1.000000)"><path d="M0.72,25.573 C0.602,25.403 0.544,25.2 0.544,24.964 C0.57,24.572 0.648,24.336 0.779,24.257 C0.91,24.179 1.158,24.14 1.525,24.14 C2.284,24.14 2.847,24.003 3.213,23.728 C3.579,23.453 3.808,23.113 3.9,22.707 C3.991,22.301 4.05,21.772 4.076,21.117 L4.076,5.534 C4.05,4.88 3.991,4.35 3.9,3.944 C3.808,3.539 3.579,3.198 3.213,2.923 C2.846,2.648 2.283,2.511 1.525,2.511 L1.289,2.511 C1.027,2.511 0.844,2.465 0.74,2.374 C0.635,2.283 0.57,2.054 0.544,1.687 C0.544,1.451 0.602,1.249 0.72,1.078 C0.837,0.908 1,0.823 1.21,0.823 C2.937,0.901 4.494,0.94 5.881,0.94 L12.004,0.94 C14.516,0.94 16.799,1.444 18.853,2.451 C20.907,3.459 22.529,4.904 23.72,6.789 C24.91,8.673 25.506,10.898 25.506,13.462 C25.506,16.131 24.832,18.388 23.485,20.232 C22.137,22.077 20.384,23.451 18.226,24.353 C16.067,25.256 13.757,25.707 11.298,25.707 L5.881,25.707 C4.494,25.707 2.937,25.746 1.21,25.8241349 C1.001,25.828 0.838,25.743 0.72,25.573 Z M18.619,21.412 C20.045,19.515 20.758,16.866 20.758,13.464 C20.758,11.318 20.371,9.401 19.6,7.713 C18.828,6.025 17.709,4.71 16.244,3.768 C14.779,2.826 13.039,2.355 11.024,2.355 L7.962,2.394 L7.962,21.588 C7.962,22.609 8.269,23.309 8.884,23.688 C9.499,24.067 10.5,24.2570008 11.887,24.2570008 C14.949,24.258 17.193,23.31 18.619,21.412 Z" id="Shape"></path>
<path d="M38.832,25.436 C37.406,24.729 36.326,23.801 35.594,22.649 C34.861,21.498 34.495,20.255 34.495,18.92 L34.495,5.535 C34.469,4.881 34.41,4.351 34.319,3.945 C34.226,3.54 33.998,3.199 33.631,2.924 C33.264,2.649 32.702,2.512 31.944,2.512 L31.708,2.512 C31.446,2.512 31.262,2.466 31.159,2.375 C31.054,2.284 30.988,2.055 30.963,1.688 C30.963,1.452 31.022,1.25 31.139,1.079 C31.257,0.909 31.434,0.824 31.669,0.824 C33.343,0.902 34.887,0.941 36.301,0.941 C37.897,0.941 39.532,0.902 41.207,0.824 C41.443,0.824 41.619,0.909 41.736,1.079 C41.854,1.25 41.913,1.452 41.913,1.688 C41.886,2.055 41.815,2.284 41.697,2.375 C41.58,2.467 41.39,2.512 41.128,2.512 C40.29,2.512 39.676,2.644 39.283,2.905 C38.891,3.167 38.648,3.494 38.557,3.886 C38.465,4.279 38.406,4.828 38.381,5.535 L38.381,17.781 C38.381,19.587 38.806,21.105 39.656,22.334 C40.506,23.565 42.162,24.179 44.622,24.179 C47.029,24.179 48.737,23.623 49.744,22.511 C50.751,21.399 51.256,20.006 51.256,18.33 L51.256,8.007 C51.256,6.228 51.191,4.972 51.06,4.239 C50.929,3.507 50.667,3.036 50.275,2.826 C49.882,2.617 49.202,2.512 48.234,2.512 L47.998,2.512 C47.762,2.512 47.586,2.466 47.469,2.375 C47.351,2.284 47.278,2.055 47.253,1.688 C47.253,1.452 47.312,1.25 47.429,1.079 C47.547,0.909 47.724,0.824 47.959,0.824 C49.66,0.902 51.125,0.941 52.355,0.941 C53.611,0.941 55.077,0.902 56.751,0.824 C56.987,0.824 57.163,0.909 57.281,1.079 C57.398,1.25 57.457,1.452 57.457,1.688 C57.431,2.055 57.359,2.284 57.241,2.375 C57.124,2.467 56.934,2.512 56.672,2.512 C55.625,2.512 54.898,2.604 54.493,2.787 C54.087,2.971 53.812,3.409 53.669,4.102 C53.524,4.795 53.453,6.019 53.453,7.772 L53.453,18.723 C53.453,20.477 52.968,21.936 52.001,23.099 C51.032,24.264 49.822,25.121 48.37,25.67 C46.917,26.219 45.458,26.4940021 43.994,26.4940021 C41.979,26.495 40.259,26.142 38.832,25.436 Z" id="Path"></path><path d="M61.56,25.573 C61.443,25.403 61.384,25.2 61.384,24.964 C61.41,24.598 61.475,24.369 61.58,24.277 C61.684,24.186 61.867,24.14 62.129,24.14 C63.201,24.14 64.006,23.97 64.543,23.63 C65.079,23.29 65.726,22.57 66.486,21.471 L72.177,13.385 L67.152,5.496 C66.524,4.528 65.909,3.821 65.307,3.377 C64.705,2.932 63.973,2.618 63.109,2.435 C63.004,2.409 62.847,2.376 62.638,2.337 C62.428,2.298 62.291,2.22 62.226,2.101 C62.161,1.984 62.128,1.794 62.128,1.532 C62.128,1.166 62.226,0.943 62.423,0.865 C62.619,0.786 62.861,0.747 63.149,0.747 C63.436,0.747 63.62,0.747 63.698,0.747 C65.529,0.747 66.988,1.048 68.074,1.65 C69.16,2.252 70.226,3.312 71.273,4.829 L74.492,10.089 L78.378,4.437 C78.692,3.914 78.849,3.534 78.849,3.298 C78.849,2.984 78.665,2.775 78.3,2.67 C77.933,2.565 77.383,2.513 76.651,2.513 L76.415,2.513 C76.153,2.513 75.97,2.467 75.866,2.376 C75.761,2.285 75.696,2.056 75.67,1.689 C75.67,1.453 75.729,1.251 75.847,1.08 C75.964,0.91 76.127,0.825 76.337,0.825 C78.012,0.903 79.438,0.942 80.616,0.942 C81.583,0.942 82.905,0.903 84.58,0.825 C84.816,0.825 84.992,0.91 85.109,1.08 C85.227,1.251 85.286,1.453 85.286,1.689 C85.26,2.056 85.193,2.285 85.09,2.376 C84.985,2.468 84.802,2.513 84.541,2.513 C83.468,2.513 82.663,2.684 82.127,3.023 C81.59,3.363 80.943,4.083 80.184,5.182 L75.591,11.698 L82.421,21.432 C82.996,22.296 83.545,22.963 84.069,23.434 C84.592,23.905 85.233,24.141 85.992,24.141 L86.228,24.141 C86.489,24.141 86.673,24.187 86.777,24.278 C86.882,24.37 86.947,24.599 86.973,24.965 C86.973,25.201 86.914,25.403 86.797,25.574 C86.68,25.744 86.515,25.829 86.307,25.829 C84.632,25.751 83.062,25.712 81.596,25.712 C80.105,25.712 78.508,25.751 76.808,25.829 C76.572,25.829 76.396,25.744 76.278,25.574 C76.161,25.404 76.102,25.201 76.102,24.965 C76.128,24.573 76.213,24.337 76.358,24.258 C76.501,24.18 76.744,24.141 77.084,24.141 C77.607,24.141 78.006,24.049 78.281,23.866 C78.556,23.683 78.693,23.434 78.693,23.12 C78.693,22.832 78.576,22.531 78.34,22.217 L73.315,15.035 L68.291,22.217 C67.977,22.636 67.82,23.016 67.82,23.356 C67.82,23.67 68.003,23.88 68.369,23.984 C68.736,24.089 69.285,24.141 70.018,24.141 L70.253,24.141 C70.515,24.141 70.698,24.187 70.803,24.278 C70.907,24.37 70.972,24.599 70.999,24.965 C70.999,25.201 70.941,25.403 70.823,25.574 C70.706,25.744 70.542,25.829 70.333,25.829 C68.658,25.751 67.232,25.712 66.054,25.712 C65.112,25.712 63.79,25.751 62.09,25.829 C61.855,25.828 61.678,25.743 61.56,25.573 Z" id="Path"></path><path d="M103.245,25.573 C103.127,25.403 103.069,25.2 103.069,24.964 C103.095,24.572 103.173,24.336 103.304,24.257 C103.435,24.179 103.683,24.14 104.05,24.14 C104.809,24.14 105.372,24.003 105.738,23.728 C106.104,23.453 106.333,23.113 106.425,22.707 C106.516,22.301 106.575,21.772 106.601,21.117 L106.601,5.574 C106.575,4.894 106.516,4.357 106.425,3.965 C106.333,3.572 106.104,3.233 105.738,2.944 C105.371,2.656 104.808,2.512 104.05,2.512 L103.814,2.512 C103.552,2.512 103.369,2.466 103.265,2.375 C103.16,2.284 103.095,2.055 103.069,1.688 C103.069,1.452 103.127,1.25 103.245,1.079 C103.362,0.909 103.539,0.824 103.774,0.824 C105.475,0.902 107.032,0.941 108.445,0.941 L115.197,0.941 C117.211,0.967 118.892,1.288 120.241,1.902 C121.588,2.518 122.576,3.303 123.205,4.257 C123.833,5.213 124.147,6.24 124.147,7.339 C124.147,8.778 123.578,10.1 122.44,11.303 C121.302,12.507 119.751,13.371 117.789,13.894 L118.456,14.954 C119.555,16.734 120.549,18.259 121.439,19.527 C122.328,20.796 123.296,21.98 124.343,23.079 C125.075,23.681 125.86,24.034 126.698,24.139 C126.75,24.139 126.868,24.145 127.051,24.158 C127.234,24.172 127.385,24.243 127.503,24.374 C127.62,24.505 127.679,24.701 127.679,24.963 C127.679,25.199 127.62,25.401 127.503,25.572 C127.385,25.742 127.208,25.827 126.973,25.827 L125.952,25.788 C124.8,25.735 123.964,25.71 123.44,25.71 C122.393,25.501 121.497,25.128 120.752,24.591 C120.006,24.055 119.266,23.289 118.534,22.295 C117.775,21.301 116.716,19.678 115.355,17.428 L114.648,16.29 C114.256,15.688 113.876,15.276 113.51,15.053 C113.143,14.831 112.515,14.719 111.626,14.719 L110.487,14.719 L110.487,21.117 C110.513,21.772 110.572,22.301 110.663,22.707 C110.755,23.113 110.983,23.453 111.351,23.728 C111.717,24.003 112.279,24.14 113.038,24.14 L113.274,24.14 C113.51,24.14 113.686,24.186 113.804,24.277 C113.921,24.369 113.993,24.598 114.02,24.964 C114.02,25.2 113.961,25.402 113.844,25.573 C113.726,25.743 113.549,25.828 113.314,25.828 C111.639,25.75 110.004,25.711 108.408,25.711 C107.021,25.711 105.477,25.75 103.776,25.828 C103.539,25.828 103.362,25.743 103.245,25.573 Z M113.941,13.189 C117.84,13.189 119.789,11.357 119.789,7.693 C119.789,6.201 119.279,4.946 118.258,3.925 C117.237,2.904 115.563,2.394 113.234,2.394 C112.475,2.394 111.9,2.486 111.507,2.669 C111.115,2.852 110.846,3.166 110.703,3.611 C110.558,4.057 110.487,4.737 110.487,5.652 L110.487,13.189 L113.941,13.189 Z" id="Shape"></path><path d="M132.525,25.573 C132.407,25.403 132.349,25.2 132.349,24.964 C132.375,24.572 132.453,24.336 132.584,24.257 C132.715,24.179 132.963,24.14 133.33,24.14 C134.089,24.14 134.652,24.003 135.018,23.728 C135.384,23.453 135.613,23.113 135.705,22.707 C135.796,22.301 135.855,21.772 135.881,21.117 L135.881,5.534 C135.855,4.88 135.796,4.35 135.705,3.944 C135.613,3.539 135.384,3.198 135.018,2.923 C134.651,2.648 134.088,2.511 133.33,2.511 L133.094,2.511 C132.832,2.511 132.649,2.465 132.545,2.374 C132.44,2.283 132.375,2.054 132.349,1.687 C132.349,1.451 132.407,1.249 132.525,1.078 C132.642,0.908 132.805,0.823 133.015,0.823 C134.742,0.901 136.299,0.94 137.686,0.94 L150.011,0.94 C150.691,0.94 151.032,1.254 151.032,1.882 L151.149,7.377 C151.149,7.613 151.032,7.803 150.796,7.946 C150.56,8.09 150.325,8.162 150.089,8.162 C149.775,8.162 149.5,8.103 149.265,7.986 C149.029,7.868 148.898,7.691 148.873,7.456 C148.663,6.174 148.434,5.199 148.185,4.532 C147.937,3.865 147.57,3.368 147.086,3.041 C146.601,2.714 145.914,2.537 145.026,2.511 L139.766,2.511 L139.766,12.481 L146.871,12.481 C147.054,12.507 147.198,12.606 147.302,12.775 C147.407,12.946 147.459,13.148 147.459,13.384 C147.459,13.594 147.406,13.777 147.302,13.933 C147.197,14.09 147.054,14.169 146.871,14.169 L139.766,14.169 L139.766,21.588 C139.819,22.137 139.884,22.576 139.962,22.903 C140.04,23.23 140.276,23.524 140.669,23.786 C141.061,24.047 141.676,24.165 142.514,24.139 L146.125,24.139 C147.041,24.113 147.734,23.963 148.205,23.688 C148.676,23.413 149.049,22.988 149.324,22.412 C149.599,21.837 149.932,20.895 150.325,19.586 C150.508,19.115 150.953,18.933 151.659,19.037 C151.92,19.09 152.15,19.194 152.346,19.351 C152.542,19.508 152.627,19.705 152.602,19.94 L151.817,24.886 C151.739,25.226 151.621,25.449 151.464,25.553 C151.307,25.658 151.045,25.71 150.679,25.71 L137.725,25.71 C136.312,25.71 134.742,25.749 133.015,25.8270087 C132.806,25.828 132.643,25.743 132.525,25.573 Z" id="Path"></path><path d="M161.021,25.063 C159.569,24.108 158.843,22.702 158.843,20.843 C158.843,19.902 159.163,19.123 159.805,18.508 C160.445,17.893 161.277,17.586 162.297,17.586 C162.898,17.612 163.357,17.762 163.671,18.037 C163.985,18.312 164.142,18.566 164.142,18.802 C164.142,18.828 164.011,18.92 163.749,19.077 C163.488,19.234 163.252,19.47 163.043,19.784 C162.833,20.098 162.728,20.53 162.728,21.079 C162.728,22.31 163.101,23.257 163.847,23.925 C164.593,24.592 165.751,24.926 167.321,24.926 C168.394,24.926 169.336,24.717 170.147,24.298 C170.958,23.88 171.58,23.323 172.012,22.63 C172.444,21.937 172.66,21.21 172.66,20.451 C172.66,19.509 172.392,18.698 171.855,18.017 C171.318,17.337 170.658,16.768 169.873,16.31 C169.088,15.852 168.015,15.323 166.655,14.72 C165.085,14.014 163.815,13.373 162.847,12.797 C161.878,12.222 161.054,11.456 160.374,10.501 C159.694,9.546 159.353,8.362 159.353,6.948 C159.353,4.672 160.132,2.971 161.689,1.846 C163.245,0.721 165.294,0.158 167.832,0.158 C169.82,0.158 171.554,0.577 173.033,1.414 C174.511,2.252 175.251,3.482 175.251,5.103 C175.251,6.045 174.93,6.824 174.29,7.439 C173.648,8.054 172.818,8.361 171.798,8.361 C171.195,8.335 170.738,8.185 170.424,7.91 C170.11,7.635 169.953,7.38 169.953,7.144 C169.953,7.118 170.13,7.027 170.483,6.869 C170.836,6.712 171.151,6.477 171.425,6.162 C171.7,5.848 171.837,5.416 171.837,4.867 C171.837,3.899 171.464,3.14 170.718,2.59 C169.972,2.041 169.023,1.766 167.872,1.766 C166.276,1.766 165.066,2.139 164.242,2.885 C163.418,3.631 163.006,4.553 163.006,5.652 C163.006,6.569 163.254,7.334 163.751,7.949 C164.249,8.564 165.046,9.172 166.146,9.774 C167.035,10.245 168.003,10.716 169.05,11.187 C170.725,11.946 172.053,12.639 173.034,13.267 C174.015,13.895 174.84,14.719 175.506,15.739 C176.174,16.76 176.507,18.029 176.507,19.547 C176.507,20.856 176.095,22.039 175.271,23.099 C174.446,24.159 173.334,24.99 171.935,25.592 C170.534,26.193 168.997,26.4940016 167.322,26.4940016 C164.574,26.495 162.474,26.018 161.021,25.063 Z" id="Path"></path><path d="M182.572,25.573 C182.454,25.403 182.396,25.2 182.396,24.964 C182.422,24.572 182.5,24.336 182.631,24.257 C182.762,24.179 183.01,24.14 183.377,24.14 C184.136,24.14 184.699,24.003 185.065,23.728 C185.431,23.453 185.66,23.113 185.752,22.707 C185.843,22.301 185.902,21.772 185.928,21.117 L185.928,5.534 C185.902,4.88 185.843,4.35 185.752,3.944 C185.66,3.539 185.431,3.198 185.065,2.923 C184.698,2.648 184.135,2.511 183.377,2.511 L183.141,2.511 C182.879,2.511 182.696,2.465 182.592,2.374 C182.487,2.283 182.422,2.054 182.396,1.687 C182.396,1.451 182.454,1.249 182.572,1.078 C182.689,0.908 182.852,0.823 183.062,0.823 C184.789,0.901 186.346,0.94 187.733,0.94 L200.058,0.94 C200.738,0.94 201.079,1.254 201.079,1.882 L201.196,7.377 C201.196,7.613 201.079,7.803 200.843,7.946 C200.607,8.09 200.372,8.162 200.136,8.162 C199.822,8.162 199.547,8.103 199.312,7.986 C199.076,7.868 198.945,7.691 198.92,7.456 C198.71,6.174 198.481,5.199 198.232,4.532 C197.984,3.865 197.617,3.368 197.133,3.041 C196.648,2.714 195.961,2.537 195.073,2.511 L189.813,2.511 L189.813,12.481 L196.918,12.481 C197.101,12.507 197.245,12.606 197.349,12.775 C197.454,12.946 197.506,13.148 197.506,13.384 C197.506,13.594 197.453,13.777 197.349,13.933 C197.244,14.09 197.101,14.169 196.918,14.169 L189.813,14.169 L189.813,21.588 C189.866,22.137 189.931,22.576 190.009,22.903 C190.087,23.23 190.323,23.524 190.716,23.786 C191.108,24.047 191.723,24.165 192.561,24.139 L196.172,24.139 C197.088,24.113 197.781,23.963 198.252,23.688 C198.723,23.413 199.096,22.988 199.371,22.412 C199.646,21.837 199.98,20.895 200.372,19.586 C200.555,19.115 201.001,18.933 201.706,19.037 C201.967,19.09 202.197,19.194 202.393,19.351 C202.589,19.508 202.674,19.705 202.649,19.94 L201.864,24.886 C201.786,25.226 201.668,25.449 201.511,25.553 C201.354,25.658 201.092,25.71 200.726,25.71 L187.772,25.71 C186.359,25.71 184.789,25.749 183.062,25.8270087 C182.853,25.828 182.69,25.743 182.572,25.573 Z" id="Path"></path><path d="M208.831,25.573 C208.713,25.403 208.655,25.2 208.655,24.964 C208.681,24.572 208.759,24.336 208.89,24.257 C209.021,24.179 209.269,24.14 209.636,24.14 C210.395,24.14 210.958,24.003 211.324,23.728 C211.69,23.453 211.919,23.113 212.011,22.707 C212.102,22.301 212.161,21.772 212.187,21.117 L212.187,5.574 C212.161,4.894 212.102,4.357 212.011,3.965 C211.919,3.572 211.69,3.233 211.324,2.944 C210.957,2.656 210.394,2.512 209.636,2.512 L209.4,2.512 C209.138,2.512 208.955,2.466 208.851,2.375 C208.746,2.284 208.681,2.055 208.655,1.688 C208.655,1.452 208.713,1.25 208.831,1.079 C208.948,0.909 209.125,0.824 209.36,0.824 C211.061,0.902 212.618,0.941 214.031,0.941 L220.783,0.941 C222.797,0.967 224.478,1.288 225.827,1.902 C227.174,2.518 228.162,3.303 228.791,4.257 C229.419,5.213 229.733,6.24 229.733,7.339 C229.733,8.778 229.164,10.1 228.026,11.303 C226.888,12.507 225.337,13.371 223.375,13.894 L224.042,14.954 C225.141,16.734 226.135,18.259 227.025,19.527 C227.914,20.796 228.882,21.98 229.929,23.079 C230.661,23.681 231.446,24.034 232.284,24.139 C232.336,24.139 232.454,24.145 232.637,24.158 C232.82,24.172 232.971,24.243 233.089,24.374 C233.206,24.505 233.265,24.701 233.265,24.963 C233.265,25.199 233.206,25.401 233.089,25.572 C232.971,25.742 232.794,25.827 232.559,25.827 L231.538,25.788 C230.386,25.735 229.55,25.71 229.026,25.71 C227.979,25.501 227.083,25.128 226.338,24.591 C225.592,24.055 224.852,23.289 224.12,22.295 C223.361,21.301 222.302,19.678 220.941,17.428 L220.234,16.29 C219.842,15.688 219.462,15.276 219.096,15.053 C218.729,14.831 218.101,14.719 217.212,14.719 L216.073,14.719 L216.073,21.117 C216.099,21.772 216.158,22.301 216.249,22.707 C216.341,23.113 216.569,23.453 216.937,23.728 C217.303,24.003 217.865,24.14 218.624,24.14 L218.86,24.14 C219.096,24.14 219.272,24.186 219.39,24.277 C219.507,24.369 219.579,24.598 219.606,24.964 C219.606,25.2 219.547,25.402 219.43,25.573 C219.312,25.743 219.135,25.828 218.9,25.828 C217.225,25.75 215.59,25.711 213.994,25.711 C212.607,25.711 211.063,25.75 209.362,25.828 C209.125,25.828 208.948,25.743 208.831,25.573 Z M219.527,13.189 C223.426,13.189 225.375,11.357 225.375,7.693 C225.375,6.201 224.865,4.946 223.844,3.925 C222.823,2.904 221.149,2.394 218.82,2.394 C218.061,2.394 217.486,2.486 217.093,2.669 C216.701,2.852 216.432,3.166 216.289,3.611 C216.144,4.057 216.073,4.737 216.073,5.652 L216.073,13.189 L219.527,13.189 Z" id="Shape"></path><path d="M243.078,15.858 C241.376,11.174 240.134,7.785 239.349,5.691 C238.904,4.567 238.472,3.782 238.054,3.336 C237.636,2.892 237.02,2.59 236.209,2.434 C236.104,2.408 235.947,2.375 235.738,2.336 C235.529,2.297 235.391,2.219 235.326,2.1 C235.261,1.983 235.228,1.793 235.228,1.531 C235.228,1.217 235.313,1.008 235.484,0.903 C235.654,0.798 235.922,0.746 236.288,0.746 C238.251,0.746 239.743,1.047 240.763,1.649 C241.784,2.251 242.594,3.324 243.196,4.867 L248.887,20.176 L249.005,20.176 L254.422,4.436 C254.579,3.991 254.658,3.651 254.658,3.415 C254.658,3.048 254.507,2.806 254.206,2.688 C253.905,2.571 253.402,2.512 252.695,2.512 L252.459,2.512 C252.197,2.512 252.014,2.466 251.91,2.375 C251.805,2.284 251.739,2.055 251.714,1.688 C251.714,1.452 251.773,1.25 251.89,1.079 C252.008,0.909 252.171,0.824 252.381,0.824 C254.081,0.902 255.507,0.941 256.659,0.941 C257.156,0.941 258.112,0.915 259.524,0.863 L260.349,0.824 C260.585,0.824 260.761,0.909 260.878,1.079 C260.996,1.25 261.054,1.452 261.054,1.688 C261.028,2.055 260.962,2.284 260.858,2.375 C260.753,2.467 260.57,2.512 260.308,2.512 C259.183,2.512 258.326,2.696 257.737,3.061 C257.148,3.428 256.644,4.134 256.226,5.181 C255.441,7.327 254.178,10.801 252.438,15.602 C250.697,20.405 249.435,23.904 248.65,26.102 L246.805,26.102 C246.021,23.957 244.778,20.543 243.078,15.858 Z" id="Path"></path><path d="M264.764,25.573 C264.646,25.403 264.588,25.2 264.588,24.964 C264.614,24.572 264.692,24.336 264.823,24.257 C264.954,24.179 265.202,24.14 265.569,24.14 C266.328,24.14 266.891,24.003 267.257,23.728 C267.623,23.453 267.852,23.113 267.944,22.707 C268.035,22.301 268.094,21.772 268.12,21.117 L268.12,5.534 C268.094,4.88 268.035,4.35 267.944,3.944 C267.852,3.539 267.623,3.198 267.257,2.923 C266.89,2.648 266.327,2.511 265.569,2.511 L265.333,2.511 C265.071,2.511 264.888,2.465 264.784,2.374 C264.679,2.283 264.614,2.054 264.588,1.687 C264.588,1.451 264.646,1.249 264.764,1.078 C264.881,0.908 265.044,0.823 265.254,0.823 C266.981,0.901 268.538,0.94 269.925,0.94 L282.25,0.94 C282.93,0.94 283.271,1.254 283.271,1.882 L283.388,7.377 C283.388,7.613 283.271,7.803 283.035,7.946 C282.799,8.09 282.564,8.162 282.328,8.162 C282.014,8.162 281.739,8.103 281.504,7.986 C281.268,7.868 281.137,7.691 281.112,7.456 C280.902,6.174 280.673,5.199 280.424,4.532 C280.176,3.865 279.809,3.368 279.325,3.041 C278.84,2.714 278.153,2.537 277.265,2.511 L272.005,2.511 L272.005,12.481 L279.11,12.481 C279.293,12.507 279.437,12.606 279.541,12.775 C279.646,12.946 279.698,13.148 279.698,13.384 C279.698,13.594 279.645,13.777 279.541,13.933 C279.436,14.09 279.293,14.169 279.11,14.169 L272.005,14.169 L272.005,21.588 C272.058,22.137 272.123,22.576 272.201,22.903 C272.279,23.23 272.515,23.524 272.908,23.786 C273.3,24.047 273.915,24.165 274.753,24.139 L278.364,24.139 C279.28,24.113 279.973,23.963 280.444,23.688 C280.915,23.413 281.288,22.988 281.563,22.412 C281.838,21.837 282.172,20.895 282.564,19.586 C282.747,19.115 283.192,18.933 283.898,19.037 C284.159,19.09 284.389,19.194 284.585,19.351 C284.781,19.508 284.866,19.705 284.841,19.94 L284.056,24.886 C283.978,25.226 283.86,25.449 283.703,25.553 C283.546,25.658 283.284,25.71 282.918,25.71 L269.964,25.71 C268.551,25.71 266.981,25.749 265.254,25.8270087 C265.044,25.828 264.881,25.743 264.764,25.573 Z" id="Path"></path></g><path d="M38.882,28.035 C38.882,28.315 38.653,28.544 38.373,28.544 L0.998,28.544 C0.718,28.544 0.489,28.315 0.489,28.035 L0.489,1.5 C0.489,1.22 0.718,0.991 0.998,0.991 L10.158,0.991 C10.438,0.991 10.667,1.22 10.667,1.5 L10.668,11.659 C10.668,11.939 10.897,12.169 11.177,12.17 L13.996,12.18 C14.276,12.181 14.505,11.953 14.505,11.672 L14.505,3.756 C14.505,3.476 14.734,3.247 15.014,3.247 L24.175,3.247 C24.455,3.247 24.684,3.476 24.684,3.756 L24.684,11.67 C24.684,11.95 24.913,12.18 25.193,12.18 L28.011,12.184 C28.291,12.184 28.52,11.956 28.52,11.675 L28.521,1.499 C28.521,1.219 28.75,0.99 29.03,0.99 L38.371,0.99 C38.651,0.99 38.88,1.219 38.88,1.499 L38.88,28.035 L38.882,28.035 Z" id="Path"></path></g></g></svg>