<svg width="194px" height="90px" viewBox="0 0 194 90" version="1.1" xmlns="http://www.w3.org/2000/svg"><g id="dux-logo-isabeline" stroke="none" stroke-width="1" fill="none" fill-rule="evenodd"><g id="dux-logo" fill="#F7F4F3" fill-rule="nonzero"><g id="Group" transform="translate(0.000000, 71.000000)"><path d="M0.481,17.488 C0.401,17.372 0.361,17.234 0.361,17.074 C0.378,16.807 0.432,16.647 0.521,16.593 C0.61,16.54 0.779,16.513 1.028,16.513 C1.544,16.513 1.927,16.42 2.176,16.233 C2.425,16.046 2.581,15.815 2.643,15.539 C2.705,15.263 2.745,14.903 2.763,14.458 L2.763,3.861 C2.745,3.416 2.705,3.056 2.643,2.78 C2.581,2.505 2.425,2.273 2.176,2.086 C1.927,1.899 1.544,1.806 1.028,1.806 L0.868,1.806 C0.69,1.806 0.566,1.775 0.494,1.713 C0.423,1.651 0.378,1.495 0.361,1.246 C0.361,1.086 0.401,0.948 0.481,0.832 C0.561,0.716 0.672,0.659 0.814,0.659 C1.989,0.712 3.047,0.739 3.99,0.739 L8.154,0.739 C9.862,0.739 11.414,1.082 12.812,1.766 C14.209,2.451 15.312,3.434 16.122,4.716 C16.931,5.997 17.336,7.51 17.336,9.254 C17.336,11.069 16.878,12.604 15.962,13.858 C15.045,15.112 13.853,16.047 12.385,16.661 C10.917,17.275 9.346,17.582 7.673,17.582 L3.989,17.582 C3.046,17.582 1.987,17.609 0.813,17.662 C0.671,17.661 0.56,17.604 0.481,17.488 Z M12.652,14.659 C13.622,13.369 14.107,11.567 14.107,9.254 C14.107,7.795 13.844,6.491 13.32,5.343 C12.795,4.195 12.034,3.301 11.038,2.66 C10.041,2.019 8.858,1.699 7.488,1.699 L5.406,1.726 L5.406,14.778 C5.406,15.472 5.615,15.948 6.033,16.206 C6.451,16.464 7.132,16.5930012 8.075,16.5930012 C10.156,16.594 11.682,15.949 12.652,14.659 Z" id="Shape"></path>
<path d="M26.398,17.395 C25.428,16.914 24.694,16.283 24.196,15.5 C23.697,14.717 23.449,13.872 23.449,12.964 L23.449,3.862 C23.431,3.417 23.391,3.057 23.329,2.781 C23.266,2.506 23.111,2.274 22.861,2.087 C22.612,1.9 22.229,1.807 21.714,1.807 L21.554,1.807 C21.376,1.807 21.251,1.776 21.18,1.714 C21.109,1.652 21.064,1.496 21.046,1.247 C21.046,1.087 21.086,0.949 21.166,0.833 C21.246,0.717 21.366,0.66 21.527,0.66 C22.665,0.713 23.716,0.74 24.677,0.74 C25.762,0.74 26.874,0.713 28.014,0.66 C28.174,0.66 28.294,0.718 28.374,0.833 C28.454,0.949 28.495,1.087 28.495,1.247 C28.477,1.496 28.428,1.652 28.348,1.714 C28.268,1.776 28.139,1.807 27.961,1.807 C27.391,1.807 26.974,1.897 26.707,2.074 C26.44,2.252 26.275,2.474 26.213,2.741 C26.151,3.008 26.11,3.382 26.093,3.862 L26.093,12.19 C26.093,13.418 26.382,14.45 26.96,15.286 C27.538,16.123 28.664,16.54 30.337,16.54 C31.974,16.54 33.135,16.162 33.82,15.406 C34.505,14.65 34.848,13.702 34.848,12.563 L34.848,5.543 C34.848,4.333 34.803,3.479 34.714,2.981 C34.625,2.483 34.447,2.163 34.18,2.02 C33.913,1.878 33.45,1.807 32.792,1.807 L32.632,1.807 C32.472,1.807 32.352,1.776 32.272,1.714 C32.192,1.652 32.142,1.496 32.125,1.247 C32.125,1.087 32.165,0.949 32.245,0.833 C32.325,0.717 32.445,0.66 32.606,0.66 C33.763,0.713 34.759,0.74 35.596,0.74 C36.45,0.74 37.447,0.713 38.586,0.66 C38.746,0.66 38.866,0.718 38.947,0.833 C39.027,0.949 39.067,1.087 39.067,1.247 C39.049,1.496 39,1.652 38.92,1.714 C38.84,1.776 38.711,1.807 38.533,1.807 C37.821,1.807 37.327,1.869 37.052,1.994 C36.776,2.119 36.589,2.417 36.492,2.888 C36.394,3.359 36.345,4.192 36.345,5.384 L36.345,12.831 C36.345,14.024 36.015,15.016 35.358,15.807 C34.699,16.599 33.877,17.182 32.889,17.556 C31.901,17.93 30.909,18.116 29.913,18.116 C28.538,18.115 27.368,17.875 26.398,17.395 Z" id="Path"></path><path d="M41.853,17.488 C41.773,17.372 41.733,17.234 41.733,17.074 C41.75,16.825 41.795,16.669 41.867,16.607 C41.938,16.545 42.063,16.514 42.241,16.514 C42.97,16.514 43.518,16.398 43.883,16.167 C44.247,15.936 44.688,15.446 45.204,14.699 L49.074,9.2 L45.657,3.835 C45.23,3.177 44.812,2.696 44.403,2.394 C43.994,2.092 43.496,1.878 42.909,1.753 C42.837,1.736 42.731,1.713 42.589,1.686 C42.446,1.659 42.353,1.606 42.309,1.526 C42.264,1.446 42.242,1.317 42.242,1.139 C42.242,0.89 42.309,0.739 42.442,0.686 C42.575,0.632 42.74,0.606 42.936,0.606 C43.132,0.606 43.256,0.606 43.31,0.606 C44.555,0.606 45.547,0.811 46.286,1.22 C47.025,1.629 47.75,2.35 48.461,3.382 L50.65,6.959 L53.293,3.115 C53.506,2.759 53.613,2.501 53.613,2.341 C53.613,2.128 53.488,1.985 53.239,1.914 C52.989,1.843 52.616,1.807 52.118,1.807 L51.958,1.807 C51.78,1.807 51.656,1.776 51.584,1.714 C51.513,1.652 51.468,1.496 51.45,1.247 C51.45,1.087 51.49,0.949 51.571,0.833 C51.651,0.717 51.762,0.66 51.904,0.66 C53.043,0.713 54.013,0.74 54.814,0.74 C55.472,0.74 56.37,0.713 57.51,0.66 C57.67,0.66 57.79,0.718 57.87,0.833 C57.95,0.949 57.991,1.087 57.991,1.247 C57.973,1.496 57.928,1.652 57.857,1.714 C57.786,1.776 57.661,1.807 57.483,1.807 C56.753,1.807 56.206,1.923 55.841,2.154 C55.476,2.385 55.036,2.875 54.52,3.622 L51.397,8.053 L56.042,14.672 C56.433,15.26 56.807,15.713 57.163,16.033 C57.519,16.353 57.955,16.514 58.471,16.514 L58.631,16.514 C58.809,16.514 58.933,16.545 59.005,16.607 C59.076,16.669 59.121,16.825 59.139,17.074 C59.139,17.234 59.099,17.372 59.019,17.488 C58.939,17.604 58.827,17.661 58.686,17.661 C57.547,17.608 56.479,17.581 55.483,17.581 C54.469,17.581 53.383,17.608 52.227,17.661 C52.067,17.661 51.947,17.603 51.866,17.488 C51.786,17.372 51.746,17.234 51.746,17.074 C51.763,16.807 51.821,16.647 51.92,16.593 C52.017,16.54 52.182,16.513 52.414,16.513 C52.77,16.513 53.041,16.451 53.228,16.326 C53.415,16.202 53.508,16.032 53.508,15.819 C53.508,15.624 53.428,15.419 53.268,15.205 L49.851,10.321 L46.435,15.205 C46.222,15.49 46.115,15.748 46.115,15.979 C46.115,16.192 46.239,16.335 46.489,16.406 C46.738,16.478 47.112,16.513 47.61,16.513 L47.77,16.513 C47.948,16.513 48.072,16.544 48.144,16.606 C48.215,16.668 48.259,16.824 48.277,17.073 C48.277,17.233 48.237,17.371 48.157,17.487 C48.077,17.603 47.966,17.66 47.824,17.66 C46.685,17.607 45.715,17.58 44.914,17.58 C44.274,17.58 43.374,17.607 42.218,17.66 C42.054,17.661 41.934,17.604 41.853,17.488 Z" id="Path"></path><path d="M70.2,17.488 C70.12,17.372 70.08,17.234 70.08,17.074 C70.097,16.807 70.151,16.647 70.24,16.593 C70.329,16.54 70.498,16.513 70.747,16.513 C71.263,16.513 71.646,16.42 71.895,16.233 C72.144,16.046 72.3,15.815 72.362,15.539 C72.424,15.263 72.464,14.903 72.482,14.458 L72.482,3.888 C72.464,3.425 72.424,3.06 72.362,2.794 C72.3,2.527 72.144,2.296 71.895,2.1 C71.646,1.905 71.263,1.806 70.747,1.806 L70.587,1.806 C70.409,1.806 70.285,1.775 70.213,1.713 C70.142,1.651 70.097,1.495 70.08,1.246 C70.08,1.086 70.12,0.948 70.2,0.832 C70.28,0.716 70.4,0.659 70.56,0.659 C71.717,0.712 72.776,0.739 73.736,0.739 L78.328,0.739 C79.698,0.757 80.841,0.975 81.758,1.393 C82.674,1.812 83.346,2.346 83.773,2.994 C84.2,3.644 84.413,4.342 84.413,5.09 C84.413,6.069 84.026,6.967 83.252,7.786 C82.478,8.605 81.424,9.192 80.089,9.548 L80.542,10.269 C81.289,11.479 81.965,12.516 82.571,13.379 C83.175,14.242 83.834,15.047 84.546,15.794 C85.044,16.203 85.578,16.443 86.147,16.515 C86.182,16.515 86.263,16.519 86.387,16.528 C86.511,16.537 86.614,16.586 86.694,16.675 C86.774,16.764 86.814,16.898 86.814,17.075 C86.814,17.235 86.774,17.373 86.694,17.489 C86.614,17.605 86.494,17.662 86.333,17.662 L85.639,17.635 C84.856,17.599 84.287,17.582 83.931,17.582 C83.219,17.44 82.61,17.186 82.103,16.821 C81.596,16.457 81.092,15.936 80.594,15.26 C80.078,14.584 79.357,13.48 78.432,11.95 L77.951,11.176 C77.684,10.767 77.426,10.486 77.177,10.335 C76.928,10.184 76.5,10.108 75.896,10.108 L75.122,10.108 L75.122,14.459 C75.14,14.904 75.18,15.264 75.242,15.54 C75.304,15.816 75.46,16.047 75.71,16.234 C75.959,16.421 76.341,16.514 76.857,16.514 L77.017,16.514 C77.177,16.514 77.297,16.545 77.378,16.607 C77.458,16.669 77.507,16.825 77.525,17.074 C77.525,17.234 77.485,17.372 77.405,17.488 C77.325,17.604 77.205,17.661 77.044,17.661 C75.905,17.608 74.793,17.581 73.707,17.581 C72.764,17.581 71.714,17.608 70.557,17.661 C70.4,17.661 70.28,17.604 70.2,17.488 Z M77.474,9.067 C80.125,9.067 81.451,7.821 81.451,5.33 C81.451,4.316 81.104,3.462 80.41,2.768 C79.716,2.074 78.577,1.727 76.994,1.727 C76.478,1.727 76.087,1.789 75.819,1.914 C75.552,2.038 75.369,2.252 75.272,2.554 C75.174,2.857 75.125,3.32 75.125,3.942 L75.125,9.067 L77.474,9.067 L77.474,9.067 Z" id="Shape"></path><path d="M90.112,17.488 C90.032,17.372 89.992,17.234 89.992,17.074 C90.009,16.807 90.063,16.647 90.152,16.593 C90.241,16.54 90.41,16.513 90.659,16.513 C91.175,16.513 91.558,16.42 91.807,16.233 C92.056,16.046 92.212,15.815 92.274,15.539 C92.336,15.263 92.376,14.903 92.394,14.458 L92.394,3.861 C92.376,3.416 92.336,3.056 92.274,2.78 C92.212,2.505 92.056,2.273 91.807,2.086 C91.558,1.899 91.175,1.806 90.659,1.806 L90.499,1.806 C90.321,1.806 90.197,1.775 90.125,1.713 C90.054,1.651 90.009,1.495 89.992,1.246 C89.992,1.086 90.032,0.948 90.112,0.832 C90.192,0.716 90.303,0.659 90.445,0.659 C91.62,0.712 92.678,0.739 93.621,0.739 L102.003,0.739 C102.466,0.739 102.697,0.952 102.697,1.38 L102.777,5.117 C102.777,5.277 102.697,5.406 102.537,5.504 C102.377,5.602 102.217,5.651 102.056,5.651 C101.843,5.651 101.656,5.611 101.496,5.531 C101.336,5.451 101.247,5.331 101.229,5.17 C101.086,4.298 100.93,3.635 100.761,3.181 C100.592,2.728 100.343,2.39 100.014,2.167 C99.684,1.944 99.217,1.824 98.613,1.806 L95.036,1.806 L95.036,8.586 L99.868,8.586 C99.992,8.604 100.09,8.671 100.161,8.786 C100.232,8.902 100.268,9.04 100.268,9.2 C100.268,9.343 100.232,9.467 100.161,9.574 C100.09,9.681 99.992,9.734 99.868,9.734 L95.036,9.734 L95.036,14.779 C95.072,15.153 95.116,15.451 95.17,15.673 C95.224,15.895 95.383,16.096 95.651,16.274 C95.918,16.452 96.336,16.532 96.905,16.514 L99.361,16.514 C99.984,16.497 100.455,16.394 100.776,16.207 C101.096,16.02 101.35,15.731 101.537,15.339 C101.724,14.948 101.951,14.307 102.217,13.417 C102.341,13.097 102.644,12.973 103.124,13.043 C103.302,13.079 103.458,13.15 103.591,13.256 C103.725,13.363 103.782,13.497 103.765,13.657 L103.231,17.02 C103.178,17.251 103.097,17.403 102.991,17.473 C102.884,17.545 102.706,17.58 102.457,17.58 L93.648,17.58 C92.687,17.58 91.62,17.607 90.445,17.6600129 C90.302,17.661 90.191,17.604 90.112,17.488 Z" id="Path"></path><path d="M109.489,17.141 C108.502,16.491 108.008,15.535 108.008,14.271 C108.008,13.631 108.226,13.101 108.662,12.683 C109.098,12.265 109.663,12.056 110.357,12.056 C110.766,12.074 111.078,12.176 111.291,12.363 C111.504,12.55 111.611,12.723 111.611,12.883 C111.611,12.901 111.522,12.963 111.344,13.07 C111.166,13.177 111.006,13.337 110.864,13.551 C110.721,13.764 110.65,14.058 110.65,14.432 C110.65,15.269 110.904,15.913 111.411,16.367 C111.918,16.82 112.706,17.047 113.773,17.047 C114.503,17.047 115.143,16.905 115.695,16.62 C116.247,16.335 116.669,15.957 116.963,15.486 C117.257,15.015 117.403,14.52 117.403,14.005 C117.403,13.364 117.221,12.813 116.856,12.35 C116.491,11.887 116.042,11.501 115.508,11.189 C114.974,10.878 114.244,10.518 113.319,10.108 C112.251,9.628 111.388,9.192 110.73,8.8 C110.071,8.409 109.511,7.888 109.048,7.239 C108.585,6.589 108.354,5.784 108.354,4.823 C108.354,3.275 108.883,2.119 109.942,1.353 C111,0.588 112.393,0.205 114.119,0.205 C115.471,0.205 116.65,0.49 117.656,1.059 C118.661,1.629 119.164,2.465 119.164,3.568 C119.164,4.209 118.946,4.738 118.51,5.156 C118.073,5.574 117.509,5.783 116.815,5.783 C116.405,5.766 116.094,5.663 115.88,5.476 C115.667,5.289 115.56,5.115 115.56,4.955 C115.56,4.938 115.681,4.875 115.921,4.768 C116.161,4.661 116.375,4.501 116.562,4.287 C116.749,4.074 116.842,3.78 116.842,3.406 C116.842,2.748 116.588,2.232 116.081,1.858 C115.574,1.484 114.929,1.298 114.146,1.298 C113.06,1.298 112.238,1.552 111.677,2.059 C111.117,2.566 110.836,3.193 110.836,3.941 C110.836,4.564 111.005,5.085 111.343,5.503 C111.681,5.921 112.224,6.335 112.972,6.744 C113.576,7.064 114.235,7.385 114.947,7.705 C116.086,8.221 116.989,8.692 117.656,9.12 C118.323,9.547 118.884,10.107 119.337,10.801 C119.791,11.495 120.018,12.358 120.018,13.39 C120.018,14.28 119.738,15.085 119.177,15.805 C118.616,16.526 117.86,17.091 116.908,17.5 C115.955,17.909 114.91,18.1140023 113.771,18.1140023 C111.905,18.115 110.477,17.79 109.489,17.141 Z" id="Path"></path><path d="M124.145,17.488 C124.065,17.372 124.025,17.234 124.025,17.074 C124.042,16.807 124.096,16.647 124.185,16.593 C124.274,16.54 124.443,16.513 124.692,16.513 C125.208,16.513 125.591,16.42 125.84,16.233 C126.089,16.046 126.245,15.815 126.307,15.539 C126.369,15.263 126.409,14.903 126.427,14.458 L126.427,3.861 C126.409,3.416 126.369,3.056 126.307,2.78 C126.245,2.505 126.089,2.273 125.84,2.086 C125.591,1.899 125.208,1.806 124.692,1.806 L124.532,1.806 C124.354,1.806 124.23,1.775 124.158,1.713 C124.087,1.651 124.042,1.495 124.025,1.246 C124.025,1.086 124.065,0.948 124.145,0.832 C124.225,0.716 124.336,0.659 124.478,0.659 C125.653,0.712 126.711,0.739 127.654,0.739 L136.036,0.739 C136.499,0.739 136.73,0.952 136.73,1.38 L136.81,5.117 C136.81,5.277 136.73,5.406 136.57,5.504 C136.41,5.602 136.25,5.651 136.089,5.651 C135.876,5.651 135.689,5.611 135.529,5.531 C135.369,5.451 135.28,5.331 135.262,5.17 C135.119,4.298 134.963,3.635 134.794,3.181 C134.625,2.728 134.376,2.39 134.047,2.167 C133.717,1.944 133.25,1.824 132.646,1.806 L129.069,1.806 L129.069,8.586 L133.901,8.586 C134.025,8.604 134.123,8.671 134.194,8.786 C134.265,8.902 134.301,9.04 134.301,9.2 C134.301,9.343 134.265,9.467 134.194,9.574 C134.123,9.681 134.025,9.734 133.901,9.734 L129.069,9.734 L129.069,14.779 C129.105,15.153 129.149,15.451 129.203,15.673 C129.257,15.895 129.416,16.096 129.684,16.274 C129.951,16.452 130.369,16.532 130.938,16.514 L133.394,16.514 C134.017,16.497 134.488,16.394 134.809,16.207 C135.129,16.02 135.383,15.731 135.57,15.339 C135.757,14.948 135.984,14.307 136.25,13.417 C136.374,13.097 136.677,12.973 137.157,13.043 C137.335,13.079 137.491,13.15 137.624,13.256 C137.758,13.363 137.815,13.497 137.798,13.657 L137.264,17.02 C137.211,17.251 137.13,17.403 137.024,17.473 C136.917,17.545 136.739,17.58 136.49,17.58 L127.681,17.58 C126.72,17.58 125.653,17.607 124.478,17.6600129 C124.335,17.661 124.225,17.604 124.145,17.488 Z" id="Path"></path><path d="M142.002,17.488 C141.922,17.372 141.882,17.234 141.882,17.074 C141.899,16.807 141.953,16.647 142.042,16.593 C142.131,16.54 142.3,16.513 142.549,16.513 C143.065,16.513 143.448,16.42 143.697,16.233 C143.946,16.046 144.102,15.815 144.164,15.539 C144.226,15.263 144.266,14.903 144.284,14.458 L144.284,3.888 C144.266,3.425 144.226,3.06 144.164,2.794 C144.102,2.527 143.946,2.296 143.697,2.1 C143.448,1.905 143.065,1.806 142.549,1.806 L142.389,1.806 C142.211,1.806 142.087,1.775 142.015,1.713 C141.944,1.651 141.899,1.495 141.882,1.246 C141.882,1.086 141.922,0.948 142.002,0.832 C142.082,0.716 142.202,0.659 142.362,0.659 C143.519,0.712 144.578,0.739 145.538,0.739 L150.13,0.739 C151.5,0.757 152.643,0.975 153.56,1.393 C154.476,1.812 155.148,2.346 155.575,2.994 C156.002,3.644 156.215,4.342 156.215,5.09 C156.215,6.069 155.828,6.967 155.054,7.786 C154.28,8.605 153.226,9.192 151.891,9.548 L152.344,10.269 C153.091,11.479 153.767,12.516 154.373,13.379 C154.977,14.242 155.636,15.047 156.348,15.794 C156.846,16.203 157.38,16.443 157.949,16.515 C157.984,16.515 158.065,16.519 158.189,16.528 C158.313,16.537 158.416,16.586 158.496,16.675 C158.576,16.764 158.616,16.898 158.616,17.075 C158.616,17.235 158.576,17.373 158.496,17.489 C158.416,17.605 158.296,17.662 158.135,17.662 L157.441,17.635 C156.658,17.599 156.089,17.582 155.733,17.582 C155.021,17.44 154.412,17.186 153.905,16.821 C153.398,16.457 152.894,15.936 152.396,15.26 C151.88,14.584 151.159,13.48 150.234,11.95 L149.753,11.176 C149.486,10.767 149.228,10.486 148.979,10.335 C148.73,10.184 148.302,10.108 147.698,10.108 L146.924,10.108 L146.924,14.459 C146.942,14.904 146.982,15.264 147.044,15.54 C147.106,15.816 147.262,16.047 147.512,16.234 C147.761,16.421 148.143,16.514 148.659,16.514 L148.819,16.514 C148.979,16.514 149.099,16.545 149.18,16.607 C149.26,16.669 149.309,16.825 149.327,17.074 C149.327,17.234 149.287,17.372 149.207,17.488 C149.127,17.604 149.007,17.661 148.846,17.661 C147.707,17.608 146.595,17.581 145.509,17.581 C144.566,17.581 143.516,17.608 142.359,17.661 C142.201,17.661 142.081,17.604 142.002,17.488 Z M149.275,9.067 C151.926,9.067 153.252,7.821 153.252,5.33 C153.252,4.316 152.905,3.462 152.211,2.768 C151.517,2.074 150.378,1.727 148.795,1.727 C148.279,1.727 147.888,1.789 147.62,1.914 C147.353,2.038 147.17,2.252 147.073,2.554 C146.975,2.857 146.926,3.32 146.926,3.942 L146.926,9.067 L149.275,9.067 L149.275,9.067 Z" id="Shape"></path><path d="M165.29,10.882 C164.133,7.697 163.288,5.392 162.754,3.968 C162.452,3.203 162.158,2.67 161.873,2.367 C161.588,2.065 161.17,1.86 160.619,1.753 C160.548,1.736 160.441,1.713 160.299,1.686 C160.157,1.659 160.063,1.606 160.019,1.526 C159.974,1.446 159.952,1.317 159.952,1.139 C159.952,0.926 160.01,0.783 160.126,0.712 C160.242,0.641 160.424,0.605 160.673,0.605 C162.008,0.605 163.022,0.81 163.716,1.219 C164.41,1.628 164.961,2.358 165.371,3.408 L169.241,13.818 L169.321,13.818 L173.005,3.114 C173.111,2.812 173.165,2.58 173.165,2.42 C173.165,2.171 173.062,2.006 172.858,1.926 C172.653,1.846 172.311,1.806 171.831,1.806 L171.671,1.806 C171.493,1.806 171.369,1.775 171.297,1.713 C171.226,1.651 171.181,1.495 171.163,1.246 C171.163,1.086 171.203,0.948 171.283,0.832 C171.363,0.716 171.474,0.659 171.617,0.659 C172.773,0.712 173.743,0.739 174.526,0.739 C174.864,0.739 175.514,0.722 176.474,0.686 L177.035,0.659 C177.195,0.659 177.315,0.717 177.395,0.832 C177.475,0.948 177.515,1.086 177.515,1.246 C177.497,1.495 177.453,1.651 177.382,1.713 C177.31,1.775 177.186,1.806 177.008,1.806 C176.243,1.806 175.66,1.931 175.26,2.18 C174.86,2.43 174.517,2.91 174.233,3.622 C173.699,5.081 172.84,7.443 171.657,10.708 C170.473,13.974 169.615,16.354 169.081,17.849 L167.827,17.849 C167.292,16.389 166.447,14.067 165.29,10.882 Z" id="Path"></path><path d="M180.038,17.488 C179.958,17.372 179.918,17.234 179.918,17.074 C179.935,16.807 179.989,16.647 180.078,16.593 C180.167,16.54 180.336,16.513 180.585,16.513 C181.101,16.513 181.484,16.42 181.733,16.233 C181.982,16.046 182.138,15.815 182.2,15.539 C182.262,15.263 182.302,14.903 182.32,14.458 L182.32,3.861 C182.302,3.416 182.262,3.056 182.2,2.78 C182.138,2.505 181.982,2.273 181.733,2.086 C181.484,1.899 181.101,1.806 180.585,1.806 L180.425,1.806 C180.247,1.806 180.123,1.775 180.051,1.713 C179.98,1.651 179.935,1.495 179.918,1.246 C179.918,1.086 179.958,0.948 180.038,0.832 C180.118,0.716 180.229,0.659 180.371,0.659 C181.546,0.712 182.604,0.739 183.547,0.739 L191.929,0.739 C192.392,0.739 192.623,0.952 192.623,1.38 L192.703,5.117 C192.703,5.277 192.623,5.406 192.463,5.504 C192.303,5.602 192.143,5.651 191.982,5.651 C191.769,5.651 191.582,5.611 191.422,5.531 C191.262,5.451 191.173,5.331 191.155,5.17 C191.012,4.298 190.856,3.635 190.687,3.181 C190.518,2.728 190.269,2.39 189.94,2.167 C189.61,1.944 189.143,1.824 188.539,1.806 L184.962,1.806 L184.962,8.586 L189.794,8.586 C189.918,8.604 190.016,8.671 190.087,8.786 C190.158,8.902 190.194,9.04 190.194,9.2 C190.194,9.343 190.158,9.467 190.087,9.574 C190.016,9.681 189.918,9.734 189.794,9.734 L184.962,9.734 L184.962,14.779 C184.998,15.153 185.042,15.451 185.096,15.673 C185.15,15.895 185.309,16.096 185.577,16.274 C185.844,16.452 186.262,16.532 186.831,16.514 L189.287,16.514 C189.91,16.497 190.381,16.394 190.702,16.207 C191.022,16.02 191.276,15.731 191.463,15.339 C191.65,14.948 191.877,14.307 192.143,13.417 C192.267,13.097 192.57,12.973 193.05,13.043 C193.228,13.079 193.384,13.15 193.517,13.256 C193.651,13.363 193.708,13.497 193.691,13.657 L193.157,17.02 C193.104,17.251 193.023,17.403 192.917,17.473 C192.81,17.545 192.632,17.58 192.383,17.58 L183.574,17.58 C182.613,17.58 181.546,17.607 180.371,17.6600129 C180.228,17.661 180.117,17.604 180.038,17.488 Z" id="Path"></path></g><path d="M132.241,50.131 C132.241,50.645 131.821,51.065 131.307,51.065 L62.748,51.065 C62.234,51.065 61.814,50.645 61.814,50.131 L61.814,1.457 C61.814,0.943 62.234,0.523 62.748,0.523 L79.552,0.523 C80.066,0.523 80.486,0.943 80.486,1.457 L80.487,20.092 C80.487,20.606 80.908,21.028 81.421,21.03 L86.591,21.048 C87.105,21.05 87.525,20.631 87.525,20.117 L87.525,5.596 C87.525,5.082 87.945,4.662 88.459,4.662 L105.264,4.662 C105.778,4.662 106.198,5.082 106.198,5.596 L106.198,20.113 C106.198,20.627 106.618,21.048 107.132,21.049 L112.302,21.057 C112.816,21.058 113.236,20.638 113.236,20.124 L113.237,1.457 C113.237,0.943 113.658,0.523 114.171,0.523 L131.305,0.523 C131.819,0.523 132.239,0.943 132.239,1.457 L132.239,50.131 L132.241,50.131 Z" id="Path"></path></g></g></svg>