<svg width="39px" height="29px" viewBox="0 0 39 29" version="1.1" xmlns="http://www.w3.org/2000/svg"><g id="dux-logo-icon-isabeline" stroke="none" stroke-width="1" fill="none" fill-rule="evenodd"><g id="dux-logo-horizontal" fill="#F7F4F3" fill-rule="nonzero"><path d="M38.882,28.035 C38.882,28.315 38.653,28.544 38.373,28.544 L0.998,28.544 C0.718,28.544 0.489,28.315 0.489,28.035 L0.489,1.5 C0.489,1.22 0.718,0.991 0.998,0.991 L10.158,0.991 C10.438,0.991 10.667,1.22 10.667,1.5 L10.668,11.659 C10.668,11.939 10.897,12.169 11.177,12.17 L13.996,12.18 C14.276,12.181 14.505,11.953 14.505,11.672 L14.505,3.756 C14.505,3.476 14.734,3.247 15.014,3.247 L24.175,3.247 C24.455,3.247 24.684,3.476 24.684,3.756 L24.684,11.67 C24.684,11.95 24.913,12.18 25.193,12.18 L28.011,12.184 C28.291,12.184 28.52,11.956 28.52,11.675 L28.521,1.499 C28.521,1.219 28.75,0.99 29.03,0.99 L38.371,0.99 C38.651,0.99 38.88,1.219 38.88,1.499 L38.88,28.035 L38.882,28.035 Z" id="Path"></path></g></g></svg>