<?xml version="1.0" encoding="UTF-8" standalone="no"?>
<svg
   xmlns:dc="http://purl.org/dc/elements/1.1/"
   xmlns:cc="http://creativecommons.org/ns#"
   xmlns:rdf="http://www.w3.org/1999/02/22-rdf-syntax-ns#"
   xmlns:svg="http://www.w3.org/2000/svg"
   xmlns="http://www.w3.org/2000/svg"
   height="24"
   viewBox="0 0 24 24"
   width="24"
   version="1.1"
   id="svg6">
  <metadata
     id="metadata12">
    <rdf:RDF>
      <cc:Work
         rdf:about="">
        <dc:format>image/svg+xml</dc:format>
        <dc:type
           rdf:resource="http://purl.org/dc/dcmitype/StillImage" />
      </cc:Work>
    </rdf:RDF>
  </metadata>
  <defs
     id="defs10" />
  <path
     d="M0 0h24v24H0z"
     fill="none"
     id="path2" />
  <path
     d="M12 2C6.48 2 2 6.48 2 12s4.48 10 10 10 10-4.48 10-10S17.52 2 12 2zm-2 15l-5-5 1.41-1.41L10 14.17l7.59-7.59L19 8l-9 9z"
     id="path4" />
  <path
     style="fill:#ffffff;stroke-width:0.0238095"
     d="M 7.5119262,14.488117 5.0239031,12.000008 5.7203005,11.303611 6.4166978,10.607214 8.208325,12.398841 9.9999524,14.190468 13.797595,10.395901 17.595238,6.6013341 18.284369,7.3020042 18.9735,8.0026743 14.486725,12.48945 9.9999493,16.976225 Z"
     id="path14" />
  <path
     style="fill:#ffffff;stroke-width:0.0238095"
     d="m 7.5119262,14.488117 -2.4880231,-2.488109 0.6963974,-0.696397 0.6963973,-0.696397 1.7916272,1.791627 1.7916274,1.791627 3.7976426,-3.796594 3.797643,-3.7965951 0.688528,0.7033009 0.688528,0.7033008 -4.486172,4.4861724 -4.4861727,4.486172 z"
     id="path16" />
  <path
     style="fill:#ffffff;stroke-width:0.0238095"
     d="m 7.5119262,14.488117 -2.4880231,-2.488109 0.6963974,-0.696397 0.6963973,-0.696397 1.7916272,1.791627 1.7916274,1.791627 3.7976426,-3.797523 3.797643,-3.7975238 0.688413,0.7043447 0.688413,0.7043446 -4.486057,4.4860575 -4.4860577,4.486057 z"
     id="path18" />
  <path
     style="fill:#ffffff;stroke-width:0.0238095"
     d="m 7.5119183,14.488109 -2.4880152,-2.488101 0.6963777,-0.696378 0.6963776,-0.696377 1.7917142,1.791596 1.7917144,1.791596 3.797575,-3.798309 3.797576,-3.7983087 0.683332,0.697134 c 0.375832,0.3834237 0.683868,0.7025017 0.684523,0.7090624 6.57e-4,0.00656 -2.015787,2.0288863 -4.480983,4.4940573 L 9.9999336,16.97621 Z"
     id="path20" />
  <path
     style="fill:#ffffff;stroke-width:0.0238095"
     d="M 7.5119183,14.488109 5.0239031,12.000008 5.7202806,11.303631 6.416658,10.607253 8.1964833,12.38696 c 0.9789041,0.978839 1.7905005,1.779707 1.8035477,1.779707 0.01305,0 1.727906,-1.704158 3.810796,-3.787018 L 17.5979,6.5926315 18.275141,7.2873222 c 0.372482,0.3820799 0.679921,0.7014244 0.683198,0.7096544 0.0033,0.00823 -2.011023,2.0319244 -4.476223,4.4970984 L 9.9999336,16.97621 Z"
     id="path22" />
  <path
     style="fill:#ffffff;stroke-width:0.0238095"
     d="M 7.5119183,14.488109 5.0239031,12.000008 5.7202806,11.303631 6.416658,10.607253 8.1964833,12.38696 c 0.9789041,0.978839 1.7905005,1.779707 1.8035477,1.779707 0.01305,0 1.728107,-1.70436 3.811244,-3.787465 l 3.78752,-3.7874653 0.676793,0.6941496 c 0.372236,0.3817822 0.679474,0.701328 0.682751,0.7101017 0.0033,0.00877 -2.011023,2.032913 -4.476223,4.498087 L 9.9999336,16.97621 Z"
     id="path24" />
</svg>
