<?xml version="1.0" encoding="UTF-8" standalone="no"?>
<svg
   xmlns:dc="http://purl.org/dc/elements/1.1/"
   xmlns:cc="http://creativecommons.org/ns#"
   xmlns:rdf="http://www.w3.org/1999/02/22-rdf-syntax-ns#"
   xmlns:svg="http://www.w3.org/2000/svg"
   xmlns="http://www.w3.org/2000/svg"
   xmlns:sodipodi="http://sodipodi.sourceforge.net/DTD/sodipodi-0.dtd"
   xmlns:inkscape="http://www.inkscape.org/namespaces/inkscape"
   height="24"
   viewBox="0 0 24 24"
   width="24"
   version="1.1"
   id="svg6">

  <metadata
     id="metadata12">
    <rdf:RDF>
      <cc:Work
         rdf:about="">
        <dc:format>image/svg+xml</dc:format>
        <dc:type
           rdf:resource="http://purl.org/dc/dcmitype/StillImage" />
        <dc:title></dc:title>
      </cc:Work>
    </rdf:RDF>
  </metadata>
  <defs
     id="defs10" />
  <path
     d="M0 0h24v24H0z"
     fill="none"
     id="path2" />
  <path
     d="M12 2C6.48 2 2 6.48 2 12s4.48 10 10 10 10-4.48 10-10S17.52 2 12 2zm-2 15l-5-5 1.41-1.41L10 14.17l7.59-7.59L19 8l-9 9z"
     id="path4" />
  <path
     style="fill:#ffffff;stroke-width:0.0238095"
     d="M 7.5119262,14.488117 5.0239031,12.000008 5.7203005,11.303611 6.4166978,10.607214 8.208325,12.398841 9.9999524,14.190468 13.797595,10.395901 17.595238,6.6013341 18.284369,7.3020042 18.9735,8.0026743 14.486725,12.48945 9.9999493,16.976225 Z"
     id="path14" />
  <path
     style="fill:#ffffff;stroke-width:0.0238095"
     d="m 7.5119262,14.488117 -2.4880231,-2.488109 0.6963974,-0.696397 0.6963973,-0.696397 1.7916272,1.791627 1.7916274,1.791627 3.7976426,-3.796594 3.797643,-3.7965951 0.688528,0.7033009 0.688528,0.7033008 -4.486172,4.4861724 -4.4861727,4.486172 z"
     id="path16" />
  <path
     style="fill:#ffffff;stroke-width:0.0238095"
     d="m 7.5119262,14.488117 -2.4880231,-2.488109 0.6963974,-0.696397 0.6963973,-0.696397 1.7916272,1.791627 1.7916274,1.791627 3.7976426,-3.797523 3.797643,-3.7975238 0.688413,0.7043447 0.688413,0.7043446 -4.486057,4.4860575 -4.4860577,4.486057 z"
     id="path18" />
  <path
     style="fill:#ffffff;stroke-width:0.0238095"
     d="m 7.5119183,14.488109 -2.4880152,-2.488101 0.6963777,-0.696378 0.6963776,-0.696377 1.7917142,1.791596 1.7917144,1.791596 3.797575,-3.798309 3.797576,-3.7983087 0.683332,0.697134 c 0.375832,0.3834237 0.683868,0.7025017 0.684523,0.7090624 6.57e-4,0.00656 -2.015787,2.0288863 -4.480983,4.4940573 L 9.9999336,16.97621 Z"
     id="path20" />
  <path
     style="fill:#ffffff;stroke-width:0.0238095"
     d="M 7.5119183,14.488109 5.0239031,12.000008 5.7202806,11.303631 6.416658,10.607253 8.1964833,12.38696 c 0.9789041,0.978839 1.7905005,1.779707 1.8035477,1.779707 0.01305,0 1.727906,-1.704158 3.810796,-3.787018 L 17.5979,6.5926315 18.275141,7.2873222 c 0.372482,0.3820799 0.679921,0.7014244 0.683198,0.7096544 0.0033,0.00823 -2.011023,2.0319244 -4.476223,4.4970984 L 9.9999336,16.97621 Z"
     id="path22" />
  <path
     style="fill:#ffffff;stroke-width:0.0238095"
     d="M 7.5119183,14.488109 5.0239031,12.000008 5.7202806,11.303631 6.416658,10.607253 8.1964833,12.38696 c 0.9789041,0.978839 1.7905005,1.779707 1.8035477,1.779707 0.01305,0 1.728107,-1.70436 3.811244,-3.787465 l 3.78752,-3.7874653 0.676793,0.6941496 c 0.372236,0.3817822 0.679474,0.701328 0.682751,0.7101017 0.0033,0.00877 -2.011023,2.032913 -4.476223,4.498087 L 9.9999336,16.97621 Z"
     id="path24" />
  <path
     style="fill:#c5283d;stroke:none;stroke-width:0.0238095;fill-opacity:1"
     d="M 11.559524,21.974719 C 9.433609,21.880758 7.4044114,21.113849 5.7397833,19.775225 4.2541599,18.580549 3.1078157,16.926121 2.5135423,15.119048 1.5884757,12.306095 1.9594716,9.2244736 3.5239572,6.7261905 5.2063676,4.0395963 8.0238155,2.3146857 11.166667,2.0471366 c 0.435743,-0.037094 1.336508,-0.031429 1.774545,0.011161 2.509716,0.2440186 4.858501,1.4321276 6.497986,3.2869406 1.979051,2.2389769 2.849932,5.0888008 2.452008,8.0238098 -0.403117,2.973303 -2.174813,5.646534 -4.772158,7.200492 -1.381369,0.826455 -3.038068,1.33537 -4.541967,1.395229 -0.173347,0.0069 -0.384819,0.01587 -0.469938,0.01993 -0.08512,0.0041 -0.331548,-4.28e-4 -0.547619,-0.01 z M 14.523797,12.500013 19.023737,8.0000255 18.303525,7.2798133 17.583312,6.559601 13.791656,10.349274 10,14.138946 8.202381,12.355492 6.4047619,10.572038 l -0.7142398,0.713985 -0.71424,0.713984 2.4999117,2.499996 C 8.8511452,15.875001 9.9868495,17 9.9999812,17 10.013113,17 12.04883,14.975006 14.523797,12.500013 Z"
     id="path838" />
</svg>
